# xmcd
#
# Track frame offsets:
#	150
#	25682
#	46196
#	92908
#	141231
#	172762
#
# Disc length: 3761 seconds
#
# Revision: 0
# Processed by: cddbd v1.4PL0 Copyright (c) Steve Scherf et al.
# Submitted via: audiograbber 1.81.03
#
DISCID=410eaf06
DTITLE=Eric Clapton - Crossroads 2 (Live in the Seventies) [CD2]
DYEAR=1996
DGENRE=Blues
TTITLE0=Layla
TTITLE1=Further on Up the Road
TTITLE2=I Shot the Sheriff
TTITLE3=Badge
TTITLE4=Driftin' Blues
TTITLE5=Eyesight to the Blind - Why Does Love Got to Be So Sad
EXTD=YEAR: 1996 ID3G:   0
EXTT0=Providence Civic Center June 25, 1975
EXTT1=Providence Civic Center June 6, 1975
EXTT2=Nassau Coliseum June 28, 1975
EXTT3=Nassau Coliseum June 28, 1975
EXTT4=Providence Civic Center June 25, 1975
EXTT5=Providence Civic Center June 25, 1975
PLAYORDER=
